<?xml version="1.0" encoding="UTF-8"?>
<svg xmlns="http://www.w3.org/2000/svg" version="1.1" viewBox="0 0 229 126.5">
  <!-- Generator: Adobe Illustrator 29.1.0, SVG Export Plug-In . SVG Version: 2.1.0 Build 142)  -->
  <defs>
    <style>
      .st0 {
        fill: none;
      }
    </style>
  </defs>
  <g id="Layer_1">
    <path class="st0" d="M51.9-38.6h126V111.4H51.9V-38.6Z"/>
    <rect x="106.3" y="69.2" width="17.2" height="18"/>
    <path d="M168.6,129.6H61.2c-1.1-8.4-2.1-16.8-3.2-25.1,16.1-7.5,32.2-15,48.3-22.5h17.2c16.6,7.4,33.2,14.7,49.8,22.1-1.6,8.5-3.1,17-4.7,25.5Z"/>
    <path d="M57.8,130.9l-22.1,4.9-15.6-70.4c5.9-1.3,11.8-2.6,17.8-3.9,6.7,23.1,13.3,46.3,20,69.4Z"/>
    <rect x="1.4" y="67.2" width="22.7" height="10.9" transform="translate(-15.4 4.5) rotate(-12.5)"/>
    <path d="M171.7,130.9l22.1,4.9,15.6-70.4c-5.9-1.3-11.8-2.6-17.8-3.9-6.7,23.1-13.3,46.3-20,69.4Z"/>
    <rect x="205.4" y="67.2" width="22.7" height="10.9" transform="translate(412.5 190.5) rotate(-167.5)"/>
  </g>
  <g id="Layer_2">
    <path d="M114.9-.2c-20.2,0-36.6,16.4-36.6,36.6s16.4,36.6,36.6,36.6,22.7-5.8,29.3-14.7c-16.5.3-33,.2-49.4-.2-3.9,0-3.9-6.1,0-6,17.3.4,34.7.5,52,.2.4,0,.7,0,1,.1,2.3-4.8,3.7-10.2,3.7-16C151.5,16.2,135.1-.2,114.9-.2ZM91.7,37c-3.9,0-3.9-6,0-6s3.9,6,0,6ZM136.5,37.7c-3.9,0-3.9-6,0-6s3.9,6,0,6Z"/>
  </g>
</svg>